<?xml version="1.0" encoding="UTF-8"?>
<svg xmlns="http://www.w3.org/2000/svg" xmlns:xlink="http://www.w3.org/1999/xlink"
     viewBox="0 0 336.0 336.0" width="336.0" height="336.0">
  <defs>

  </defs>
<g transform="translate(-145.000, -259.000)">
  <g style="opacity: .75;">
      <path d="M431,279c13.92,0,21.38,1.52,24.93,5.07,3.55,3.55,5.07,11.01,5.07,24.93v236c0,13.92-1.52,21.38-5.07,24.93-3.55,3.55-11.01,5.07-24.93,5.07h-236c-13.92,0-21.38-1.52-24.93-5.07-3.55-3.55-5.07-11.01-5.07-24.93v-236c0-13.92,1.52-21.38,5.07-24.93,3.55-3.55,11.01-5.07,24.93-5.07h236M431,271h-236c-30.9,0-38,7.1-38,38v236c0,30.9,7.1,38,38,38h236c30.9,0,38-7.1,38-38v-236c0-30.9-7.1-38-38-38h0Z" style="fill: #c3c0bf;"/>
    </g>  <path d="M431,271c16.19,0,25.32,2.23,30.55,7.45,5.22,5.22,7.45,14.36,7.45,30.55v236c0,16.19-2.23,25.32-7.45,30.55-5.22,5.22-14.36,7.45-30.55,7.45h-236c-16.19,0-25.32-2.23-30.55-7.45-5.22-5.22-7.45-14.36-7.45-30.55v-236c0-16.19,2.23-25.32,7.45-30.55,5.22-5.22,14.36-7.45,30.55-7.45h236M431,267h-236c-33,0-42,9-42,42v236c0,33,9,42,42,42h236c33,0,42-9,42-42v-236c0-33-9-42-42-42h0Z" style="fill: #fff;"/>  <path d="M431,283c14.98,0,20.26,2.14,22.06,3.94,1.8,1.8,3.94,7.08,3.94,22.06v236c0,14.98-2.14,20.26-3.94,22.06-1.8,1.8-7.08,3.94-22.06,3.94h-236c-14.98,0-20.26-2.14-22.06-3.94-1.8-1.8-3.94-7.08-3.94-22.06v-236c0-14.98,2.14-20.26,3.94-22.06,1.8-1.8,7.08-3.94,22.06-3.94h236M431,279h-236c-13.49,0-21.4,1.62-24.89,5.11-3.49,3.49-5.11,11.4-5.11,24.89v236c0,13.49,1.62,21.4,5.11,24.89,3.49,3.49,11.4,5.11,24.89,5.11h236c13.49,0,21.4-1.62,24.89-5.11,3.49-3.49,5.11-11.4,5.11-24.89v-236c0-13.49-1.62-21.4-5.11-24.89-3.49-3.49-11.4-5.11-24.89-5.11h0Z" style="fill: #fff;"/>
</g>
</svg>
