<?xml version="1.0" encoding="UTF-8"?>
<svg xmlns="http://www.w3.org/2000/svg" xmlns:xlink="http://www.w3.org/1999/xlink"
     viewBox="0 0 100 84" width="100" height="84">
  <defs>
    <linearGradient id="_未命名的渐变_475" data-name="未命名的渐变 475" x1="65.54" y1="1314.74" x2="65.54" y2="1315.74" gradientTransform="translate(-5643.86 94943.34) scale(92 -72)" gradientUnits="userSpaceOnUse">
      <stop offset="0" stop-color="#343130"/>
      <stop offset="1" stop-color="#201d1c"/>
    </linearGradient>
    <linearGradient id="_新建渐变色板_8" data-name="新建渐变色板 8" x1="386" y1="282" x2="386" y2="210" gradientUnits="userSpaceOnUse">
      <stop offset="0" stop-color="#6f6c6b"/>
      <stop offset="1" stop-color="#83807f"/>
    </linearGradient>
    <linearGradient id="_未命名的渐变_475-2" data-name="未命名的渐变 475" x1="65.54" y1="1314.74" x2="65.54" y2="1315.74" href="#_未命名的渐变_475"/>
    <linearGradient id="_未命名的渐变_562" data-name="未命名的渐变 562" x1="386" y1="282" x2="386" y2="210" gradientUnits="userSpaceOnUse">
      <stop offset="0" stop-color="#a3a09f"/>
      <stop offset="1" stop-color="#c3c0bf"/>
    </linearGradient>
  </defs>
  <g transform="translate(-336.000, -206.000)">
      <g >
          <rect x="340" y="210" width="92" height="72" rx="24" ry="24" style="fill: url(#_未命名的渐变_475);"/>
          <path d="M408,214c8.83,0,13.7,1.11,16.3,3.7,2.6,2.6,3.7,7.47,3.7,16.3v24c0,8.83-1.11,13.7-3.7,16.3-2.6,2.6-7.47,3.7-16.3,3.7h-44c-8.83,0-13.7-1.11-16.3-3.7-2.6-2.6-3.7-7.47-3.7-16.3v-24c0-8.83,1.11-13.7,3.7-16.3,2.6-2.6,7.47-3.7,16.3-3.7h44M408,210h-44c-19,0-24,5-24,24v24c0,19,5,24,24,24h44c19,0,24-5,24-24v-24c0-19-5-24-24-24h0Z" style="fill: url(#_新建渐变色板_8);"/>
        </g>

      <g >
          <rect x="340" y="210" width="92" height="72" rx="24" ry="24" style="fill: url(#_未命名的渐变_475-2);"/>
          <path d="M408,214c8.83,0,13.7,1.11,16.3,3.7,2.6,2.6,3.7,7.47,3.7,16.3v24c0,8.83-1.11,13.7-3.7,16.3-2.6,2.6-7.47,3.7-16.3,3.7h-44c-8.83,0-13.7-1.11-16.3-3.7-2.6-2.6-3.7-7.47-3.7-16.3v-24c0-8.83,1.11-13.7,3.7-16.3,2.6-2.6,7.47-3.7,16.3-3.7h44M408,210h-44c-19,0-24,5-24,24v24c0,19,5,24,24,24h44c19,0,24-5,24-24v-24c0-19-5-24-24-24h0Z" style="fill: url(#_未命名的渐变_562);"/>
        </g>

  </g>
</svg>