<?xml version="1.0" encoding="UTF-8"?>
<svg xmlns="http://www.w3.org/2000/svg" xmlns:xlink="http://www.w3.org/1999/xlink"
     viewBox="0 0 280 112" width="280" height="112">
  <defs>
    <linearGradient id="_未命名的渐变_288" data-name="未命名的渐变 288" x1="66.45" y1="1311.45" x2="66.45" y2="1312.45" gradientTransform="translate(-4827.86 105439.34) scale(80 -80)" gradientUnits="userSpaceOnUse">
      <stop offset="0" stop-color="#343130"/>
      <stop offset="1" stop-color="#2c2928"/>
    </linearGradient>
    <linearGradient id="_未命名的渐变_2" data-name="未命名的渐变 2" x1="64.47" y1="1311.5" x2="64.47" y2="1310.5" gradientTransform="translate(-4283.86 94943.34) scale(72 -72)" gradientUnits="userSpaceOnUse">
      <stop offset="0" stop-color="#786fcf"/>
      <stop offset="1" stop-color="#7a7cdb"/>
    </linearGradient>
    <linearGradient id="_未命名的渐变_41" data-name="未命名的渐变 41" x1="53.95" y1="1312.33" x2="53.95" y2="1313.33" gradientTransform="translate(-1019.86 84448.33) scale(24 -64)" gradientUnits="userSpaceOnUse">
      <stop offset="0" stop-color="#7b7877"/>
      <stop offset="1" stop-color="#83807f"/>
    </linearGradient>
    <linearGradient id="_未命名的渐变_288-4" data-name="未命名的渐变 288" x1="62.47" y1="1313.63" x2="62.47" y2="1314.63" gradientTransform="translate(-4283.86 84447.34) scale(72 -64)" href="#_未命名的渐变_288"/>
    <linearGradient id="_未命名的渐变_340" data-name="未命名的渐变 340" x1="214" y1="375" x2="214" y2="311" gradientUnits="userSpaceOnUse">
      <stop offset="0" stop-color="#646160"/>
      <stop offset="1" stop-color="#444140"/>
    </linearGradient>
    <linearGradient id="_未命名的渐变_41-2" data-name="未命名的渐变 41" x1="63.65" y1="1313.63" x2="63.65" y2="1314.63" gradientTransform="translate(-4283.86 84447.34) scale(72 -64)" href="#_未命名的渐变_41"/>
    <linearGradient id="_未命名的渐变_333" data-name="未命名的渐变 333" x1="299" y1="375" x2="299" y2="311" gradientUnits="userSpaceOnUse">
      <stop offset="0" stop-color="#a3a09f"/>
      <stop offset="1" stop-color="#c3c0bf"/>
    </linearGradient>
    <linearGradient id="_未命名的渐变_2-3" data-name="未命名的渐变 2" x1="64.82" y1="1313.63" x2="64.82" y2="1314.63" gradientTransform="translate(-4283.86 84447.34) scale(72 -64)" href="#_未命名的渐变_2"/>
    <linearGradient id="_未命名的渐变_317" data-name="未命名的渐变 317" x1="383" y1="375" x2="383" y2="311" gradientUnits="userSpaceOnUse">
      <stop offset="0" stop-color="#a1a9e8"/>
      <stop offset="1" stop-color="#bac7ff"/>
    </linearGradient>
<clipPath id="clip_按钮禁用">
      <path d="M178,343v16c0,19,5,24,24,24h24c19,0,24-5,24-24v-16h-72Z"/>
    </clipPath>
<linearGradient id="edge_grad_left_按钮禁用" x1="0%" y1="0%" x2="100%" y2="0%">
      <stop offset="0%" stop-color="#2c2928"/>
      <stop offset="50%" stop-color="#2c2928"/>
      <stop offset="100%" stop-color="#2c2928" stop-opacity="0"/>
    </linearGradient>
<linearGradient id="edge_grad_right_按钮禁用" x1="0%" y1="0%" x2="100%" y2="0%">
      <stop offset="0%" stop-color="#2c2928" stop-opacity="0"/>
      <stop offset="50%" stop-color="#2c2928"/>
      <stop offset="100%" stop-color="#2c2928"/>
    </linearGradient>
<clipPath id="clip_按钮常态">
      <path d="M263,343v16c0,19,5,24,24,24h24c19,0,24-5,24-24v-16h-72Z"/>
    </clipPath>
<linearGradient id="edge_grad_left_按钮常态" x1="0%" y1="0%" x2="100%" y2="0%">
      <stop offset="0%" stop-color="#4c4948"/>
      <stop offset="50%" stop-color="#4c4948"/>
      <stop offset="100%" stop-color="#4c4948" stop-opacity="0"/>
    </linearGradient>
<linearGradient id="edge_grad_right_按钮常态" x1="0%" y1="0%" x2="100%" y2="0%">
      <stop offset="0%" stop-color="#4c4948" stop-opacity="0"/>
      <stop offset="50%" stop-color="#4c4948"/>
      <stop offset="100%" stop-color="#4c4948"/>
    </linearGradient>
<clipPath id="clip_按钮选中">
      <path d="M347,343v16c0,19,5,24,24,24h24c19,0,24-5,24-24v-16h-72Z"/>
    </clipPath>
<linearGradient id="edge_grad_left_按钮选中" x1="0%" y1="0%" x2="100%" y2="0%">
      <stop offset="0%" stop-color="#4b4384"/>
      <stop offset="50%" stop-color="#4b4384"/>
      <stop offset="100%" stop-color="#4b4384" stop-opacity="0"/>
    </linearGradient>
<linearGradient id="edge_grad_right_按钮选中" x1="0%" y1="0%" x2="100%" y2="0%">
      <stop offset="0%" stop-color="#4b4384" stop-opacity="0"/>
      <stop offset="50%" stop-color="#4b4384"/>
      <stop offset="100%" stop-color="#4b4384"/>
    </linearGradient>
  </defs>
  <g transform="translate(-174.000, -307.000)">
      <g id="_按钮禁用_0-7" data-name="按钮禁用 0">
          <path d="M226,307h-24c-22,0-28,6-28,28v24c0,22,6,28,28,28h24c22,0,28-6,28-28v-24c0-22-6-28-28-28Z" style="fill-rule: evenodd;"/>
        </g>  <g id="_按钮禁用_1-2" data-name="按钮禁用 1">
          <g clip-path="url(#clip_按钮禁用)">
            <rect x="178.000" y="343.000" width="72.000" height="40.000" fill="#343130"/>
            <rect x="178.000" y="343.000" width="8.000" height="40.000" fill="url(#edge_grad_left_按钮禁用)"/>
            <rect x="242.000" y="343.000" width="8.000" height="40.000" fill="url(#edge_grad_right_按钮禁用)"/>
          </g>
        </g>  <g id="_按钮禁用_2-4" data-name="按钮禁用 2">
          <g >
            <rect x="178" y="311" width="72" height="64" rx="24" ry="24" style="fill: url(#_未命名的渐变_288-4);"/>
            <path d="M226,315c8.83,0,13.7,1.11,16.3,3.7,2.6,2.6,3.7,7.47,3.7,16.3v16c0,8.83-1.11,13.7-3.7,16.3-2.6,2.6-7.47,3.7-16.3,3.7h-24c-8.83,0-13.7-1.11-16.3-3.7-2.6-2.6-3.7-7.47-3.7-16.3v-16c0-8.83,1.11-13.7,3.7-16.3,2.6-2.6,7.47-3.7,16.3-3.7h24M226,311h-24c-19,0-24,5-24,24v16c0,19,5,24,24,24h24c19,0,24-5,24-24v-16c0-19-5-24-24-24h0Z" style="fill: url(#_未命名的渐变_340);"/>
          </g>
        </g>

      <g id="_按钮常态_0-2" data-name="按钮常态 0">
          <path d="M311,307h-24c-22,0-28,6-28,28v24c0,22,6,28,28,28h24c22,0,28-6,28-28v-24c0-22-6-28-28-28Z" style="fill-rule: evenodd;"/>
        </g>  <g id="_按钮常态_1-2" data-name="按钮常态 1">
          <g clip-path="url(#clip_按钮常态)">
            <rect x="263.000" y="343.000" width="72.000" height="40.000" fill="#5c5958"/>
            <rect x="263.000" y="343.000" width="8.000" height="40.000" fill="url(#edge_grad_left_按钮常态)"/>
            <rect x="327.000" y="343.000" width="8.000" height="40.000" fill="url(#edge_grad_right_按钮常态)"/>
          </g>
        </g>  <g id="_按钮常态_2-2" data-name="按钮常态 2">
          <g >
            <rect x="263" y="311" width="72" height="64" rx="24" ry="24" style="fill: url(#_未命名的渐变_41-2);"/>
            <path d="M311,315c8.83,0,13.7,1.11,16.3,3.7,2.6,2.6,3.7,7.47,3.7,16.3v16c0,8.83-1.11,13.7-3.7,16.3-2.6,2.6-7.47,3.7-16.3,3.7h-24c-8.83,0-13.7-1.11-16.3-3.7-2.6-2.6-3.7-7.47-3.7-16.3v-16c0-8.83,1.11-13.7,3.7-16.3,2.6-2.6,7.47-3.7,16.3-3.7h24M311,311h-24c-19,0-24,5-24,24v16c0,19,5,24,24,24h24c19,0,24-5,24-24v-16c0-19-5-24-24-24h0Z" style="fill: url(#_未命名的渐变_333);"/>
          </g>
        </g>

      <g id="_按钮选中_0-2" data-name="按钮选中 0">
          <path d="M395,307h-24c-22,0-28,6-28,28v24c0,22,6,28,28,28h24c22,0,28-6,28-28v-24c0-22-6-28-28-28Z" style="fill: #fff; fill-rule: evenodd;"/>
        </g>  <g id="_按钮选中_1-2" data-name="按钮选中 1">
          <g clip-path="url(#clip_按钮选中)">
            <rect x="347.000" y="343.000" width="72.000" height="40.000" fill="#5d53a4"/>
            <rect x="347.000" y="343.000" width="8.000" height="40.000" fill="url(#edge_grad_left_按钮选中)"/>
            <rect x="411.000" y="343.000" width="8.000" height="40.000" fill="url(#edge_grad_right_按钮选中)"/>
          </g>
        </g>  <g id="_按钮选中_2-2" data-name="按钮选中 2">
          <g >
            <rect x="347" y="311" width="72" height="64" rx="24" ry="24" style="fill: url(#_未命名的渐变_2-3);"/>
            <path d="M395,315c8.83,0,13.7,1.11,16.3,3.7,2.6,2.6,3.7,7.47,3.7,16.3v16c0,8.83-1.11,13.7-3.7,16.3-2.6,2.6-7.47,3.7-16.3,3.7h-24c-8.83,0-13.7-1.11-16.3-3.7-2.6-2.6-3.7-7.47-3.7-16.3v-16c0-8.83,1.11-13.7,3.7-16.3,2.6-2.6,7.47-3.7,16.3-3.7h24M395,311h-24c-19,0-24,5-24,24v16c0,19,5,24,24,24h24c19,0,24-5,24-24v-16c0-19-5-24-24-24h0Z" style="fill: url(#_未命名的渐变_317);"/>
          </g>
        </g>

  </g>
</svg>