<?xml version="1.0" encoding="UTF-8"?>
<svg xmlns="http://www.w3.org/2000/svg" xmlns:xlink="http://www.w3.org/1999/xlink"
     viewBox="0 0 104.0 104.0" width="104.0" height="104.0">
  <defs>
    <linearGradient id="_未命名的渐变_381" data-name="未命名的渐变 381" x1="638" y1="927" x2="638" y2="847" gradientUnits="userSpaceOnUse">
      <stop offset="0" stop-color="#343130" stop-opacity="0.50"/>
      <stop offset="1" stop-color="#0c0908" stop-opacity="0.50"/>
    </linearGradient>
    <linearGradient id="_新建渐变色板_16" data-name="新建渐变色板 16" x1="638" y1="927" x2="638" y2="847" gradientUnits="userSpaceOnUse">
      <stop offset="0" stop-color="#7c7978"/>
      <stop offset="1" stop-color="#a3a09f"/>
    </linearGradient>
    <linearGradient id="_未命名的渐变_381-2" data-name="未命名的渐变 381" x1="62.87" y1="1306.4" x2="62.87" y2="1307.4" gradientTransform="translate(-4827.86 105439.34) scale(80 -80)" href="#_未命名的渐变_381"/>
  </defs>
<g transform="translate(-150.000, -835.000)">
  <g id="_按钮禁用_0" data-name="按钮禁用 0">
      <path d="M218,847c19,0,24,5,24,24v32c0,19-5,24-24,24h-32c-19,0-24-5-24-24v-32c0-19,5-24,24-24h32M218,843h-32c-21.2,0-28,6.8-28,28v32c0,21.2,6.8,28,28,28h32c21.2,0,28-6.8,28-28v-32c0-21.2-6.8-28-28-28h0Z"/>
    </g>  <g id="_按钮禁用_1_50_" data-name="按钮禁用 1 (50%)">
      <path d="M218,851h-32c-16.82,0-20,3.18-20,20v32c0,16.82,3.18,20,20,20h32c16.82,0,20-3.18,20-20v-32c0-16.82-3.18-20-20-20h0Z" style="fill: url(#_未命名的渐变_381-2);"/>
    </g>  <g id="_按钮禁用_2_75_" data-name="按钮禁用 2 (75%)">
      <path d="M218,851c8.83,0,13.7,1.11,16.3,3.7,2.6,2.6,3.7,7.47,3.7,16.3v32c0,8.83-1.11,13.7-3.7,16.3-2.6,2.6-7.47,3.7-16.3,3.7h-32c-8.83,0-13.7-1.11-16.3-3.7-2.6-2.6-3.7-7.47-3.7-16.3v-32c0-8.83,1.11-13.7,3.7-16.3,2.6-2.6,7.47-3.7,16.3-3.7h32M218,847h-32c-19,0-24,5-24,24v32c0,19,5,24,24,24h32c19,0,24-5,24-24v-32c0-19-5-24-24-24h0Z" style="fill: url(#_新建渐变色板_16);"/>
    </g>
</g>
</svg>
