<?xml version="1.0" encoding="UTF-8"?>
<svg xmlns="http://www.w3.org/2000/svg" xmlns:xlink="http://www.w3.org/1999/xlink"
     viewBox="0 0 208.0 304.0" width="208.0" height="304.0">
  <defs>
    <linearGradient id="_未命名的渐变_4000" data-name="未命名的渐变 4000" x1="640" y1="702" x2="640" y2="554" gradientUnits="userSpaceOnUse">
  <stop offset="0" stop-color="#eff0f3"/>
  <stop offset="1" stop-color="#d7d8db"/>
</linearGradient>
    <linearGradient id="_未命名的渐变_3989" data-name="未命名的渐变 3989" x1="69.08" y1="1311.01" x2="69.08" y2="1312.01" gradientTransform="translate(-3744.96 84442.37) scale(64 -64)" gradientUnits="userSpaceOnUse">
  <stop offset="0" stop-color="#303134"/>
  <stop offset="1" stop-color="#28292c"/>
</linearGradient>
    <linearGradient id="_未命名的渐变_3995" data-name="未命名的渐变 3995" x1="676" y1="542" x2="676" y2="470" gradientUnits="userSpaceOnUse">
  <stop offset="0" stop-color="#eff0f3"/>
  <stop offset="1" stop-color="#d7d8db"/>
</linearGradient>
    <pattern id="界面模板_2_2物品槽_外框_纹理" href="#界面模板_2_2物品槽_外框_纹理_基" patternTransform="translate(568, 558)"/>
    <clipPath id="clip_界面模板">
    <path d="M548,666v24c0,28.5,7.5,36,36,36h112c28.5,0,36-7.5,36-36v-24h-184Z"/>
    </clipPath>
    <linearGradient id="edge_grad_left_界面模板" x1="0%" y1="0%" x2="100%" y2="0%">
    <stop offset="0%" stop-color="#636467"/>
    <stop offset="50%" stop-color="#636467"/>
    <stop offset="100%" stop-color="#636467" stop-opacity="0"/>
    </linearGradient>
    <linearGradient id="edge_grad_right_界面模板" x1="0%" y1="0%" x2="100%" y2="0%">
    <stop offset="0%" stop-color="#636467" stop-opacity="0"/>
    <stop offset="50%" stop-color="#636467"/>
    <stop offset="100%" stop-color="#636467"/>
    </linearGradient>
    <linearGradient id="_新建渐变色板_12" x1="108" y1="68" x2="108" y2="0" gradientUnits="userSpaceOnUse">
    <stop offset="0" stop-color="#7f8083"/>
    <stop offset="1" stop-color="#737477"/>
    </linearGradient>
    <linearGradient id="_未命名的渐变_765" x1="36" y1="140" x2="36" y2="72" gradientUnits="userSpaceOnUse">
    <stop offset="0" stop-color="#7f8083"/>
    <stop offset="1" stop-color="#737477"/>
    </linearGradient>
    <linearGradient id="_新建渐变色板_11" x1="36" y1="68" x2="36" y2="0" gradientUnits="userSpaceOnUse">
    <stop offset="0" stop-color="#8f9093"/>
    <stop offset="1" stop-color="#838487"/>
    </linearGradient>
    <linearGradient id="_未命名的渐变_812" x1="108" y1="140" x2="108" y2="72" gradientUnits="userSpaceOnUse">
    <stop offset="0" stop-color="#8f9093"/>
    <stop offset="1" stop-color="#838487"/>
    </linearGradient>
    <pattern id="界面模板_2_2物品槽_外框_纹理_基" patternUnits="userSpaceOnUse" width="144" height="144">
    <rect x="72" width="72" height="68" fill="url(#_新建渐变色板_12)"/>
    <rect y="72" width="72" height="68" fill="url(#_未命名的渐变_765)"/>
    <rect width="72" height="68" fill="url(#_新建渐变色板_11)"/>
    <rect x="72" y="72" width="72" height="68" fill="url(#_未命名的渐变_812)"/>
    <rect y="68" width="144" height="4" fill="#a1a2a5"/>
    <rect y="140" width="144" height="4" fill="#a1a2a5"/>
    </pattern>
  </defs>
  <g transform="translate(-536.000, -434.000)">
      <g id="_界面模板_0" data-name="界面模板 0">
          <path d="M694,442h-108c-34,0-42,8-42,42v204c0,34,8,42,42,42h108c34,0,42-8,42-42v-204c0-34-8-42-42-42Z" style="fill-rule: evenodd;"/>
        </g>  <g id="_界面模板_1" data-name="界面模板 1">
          <g clip-path="url(#clip_界面模板)">
            <rect x="548.000" y="666.000" width="184.000" height="60.000" fill="#7f8083"/>
            <rect x="548.000" y="666.000" width="8.000" height="60.000" fill="url(#edge_grad_left_界面模板)"/>
            <rect x="724.000" y="666.000" width="8.000" height="60.000" fill="url(#edge_grad_right_界面模板)"/>
          </g>
        </g>  <g id="_界面模板_2" data-name="界面模板 2">
          <path d="M696,446h-112c-28.5,0-36,7.5-36,36v200c0,28.5,7.5,36,36,36h112c28.5,0,36-7.5,36-36v-200c0-28.5-7.5-36-36-36Z" style="fill: #bbbcbf; fill-rule: evenodd;"/>
        </g>

      <g id="_2_2物品槽_外框" data-name="2*2物品槽 外框">
          <path d="M688.06,554h-96.11c-12.05,0-19.08.21-23.41,4.56-4.33,4.34-4.54,11.38-4.54,23.44v92c0,12.07.21,19.12,4.55,23.45,4.34,4.34,11.38,4.55,23.45,4.55h96c12.08,0,19.12-.21,23.45-4.55,4.34-4.34,4.55-11.38,4.55-23.45v-92c0-12.07-.21-19.11-4.53-23.44-4.33-4.35-11.36-4.56-23.41-4.56h0Z" style="fill: url(#_未命名的渐变_4000);"/>
          <path d="M688.06,558c22.95,0,23.94,1.02,23.94,24v92c0,23-1,24-24,24h-96c-23,0-24-1-24-24v-92c0-22.98,1-24,23.94-24h96.11" style="fill: url(#界面模板_2_2物品槽_外框_纹理);"/>
        </g>

      <g >
          <path d="M668,474h16c22.1,0,23.1.1,24,24v16c-.9,22.1-1.9,23.1-24,24h-16c-23.9-.9-24-1.9-24-24v-16c0-23.9.1-24,24-24Z" style="fill: url(#_未命名的渐变_3989); fill-rule: evenodd;"/>
          <path d="M684.39,474c21.73,0,22.72.24,23.61,24v16c-.9,22.1-1.9,23.1-24,24h-16c-23.9-.9-24-1.9-24-24v-16c0-23.76.1-24,23.58-24h16.81M684.39,470h-16.81c-12.42,0-19.26,0-23.46,4.29-4.12,4.22-4.12,10.73-4.12,23.71v16c0,11.87,0,18.41,4.16,22.72,4.19,4.34,11,4.79,23.69,5.27h.08s.08,0,.08,0h16.16c11.58-.48,18.34-.95,22.62-5.22,4.27-4.27,4.75-11.03,5.22-22.61v-.08s0-.08,0-.08v-16.15c-.48-12.63-.92-19.41-5.19-23.61-4.3-4.24-11.12-4.24-22.42-4.24h0Z" style="fill: url(#_未命名的渐变_3995);"/>
        </g>

      <g id="_合成箭头_0_图像" data-name="合成箭头 0 图像">
          <image id="_合成箭头_0_图像-2" data-name="合成箭头 0 图像" width="47" height="32" transform="translate(572 492)" href="005-无样式-33.png"/>
        </g>

      <g id="_合成箭头_1_图像" data-name="合成箭头 1 图像">
          <image id="_合成箭头_1_图像-2" data-name="合成箭头 1 图像" width="47" height="32" transform="translate(572 488)" href="005-无样式-34.png"/>
        </g>

  </g>
</svg>