<?xml version="1.0" encoding="UTF-8"?>
<svg xmlns="http://www.w3.org/2000/svg" xmlns:xlink="http://www.w3.org/1999/xlink"
     viewBox="0 0 208.0 304.0" width="208.0" height="304.0">
  <defs>
    <linearGradient id="_未命名的渐变_3989" data-name="未命名的渐变 3989" x1="69.08" y1="1311.01" x2="69.08" y2="1312.01" gradientTransform="translate(-3744.96 84442.37) scale(64 -64)" gradientUnits="userSpaceOnUse">
      <stop offset="0" stop-color="#303134"/>
      <stop offset="1" stop-color="#28292c"/>
    </linearGradient>
    <linearGradient id="_未命名的渐变_3995" data-name="未命名的渐变 3995" x1="676" y1="542" x2="676" y2="470" gradientUnits="userSpaceOnUse">
      <stop offset="0" stop-color="#eff0f3"/>
      <stop offset="1" stop-color="#d7d8db"/>
    </linearGradient>
  </defs>
<g transform="translate(-536.000, -434.000)">
  <g >
      <path d="M668,474h16c22.1,0,23.1.1,24,24v16c-.9,22.1-1.9,23.1-24,24h-16c-23.9-.9-24-1.9-24-24v-16c0-23.9.1-24,24-24Z" style="fill: url(#_未命名的渐变_3989); fill-rule: evenodd;"/>
      <path d="M684.39,474c21.73,0,22.72.24,23.61,24v16c-.9,22.1-1.9,23.1-24,24h-16c-23.9-.9-24-1.9-24-24v-16c0-23.76.1-24,23.58-24h16.81M684.39,470h-16.81c-12.42,0-19.26,0-23.46,4.29-4.12,4.22-4.12,10.73-4.12,23.71v16c0,11.87,0,18.41,4.16,22.72,4.19,4.34,11,4.79,23.69,5.27h.08s.08,0,.08,0h16.16c11.58-.48,18.34-.95,22.62-5.22,4.27-4.27,4.75-11.03,5.22-22.61v-.08s0-.08,0-.08v-16.15c-.48-12.63-.92-19.41-5.19-23.61-4.3-4.24-11.12-4.24-22.42-4.24h0Z" style="fill: url(#_未命名的渐变_3995);"/>
    </g>
</g>
</svg>
