<?xml version="1.0" encoding="UTF-8"?>
<svg xmlns="http://www.w3.org/2000/svg" xmlns:xlink="http://www.w3.org/1999/xlink"
     viewBox="0 0 712.0 372.0" width="712.0" height="372.0">
  <defs>
<linearGradient id="_未命名的渐变_4003" data-name="未命名的渐变 4003" x1="1092" y1="1115" x2="1092" y2="1063" gradientUnits="userSpaceOnUse">
  <stop offset="0" stop-color="#eff0f3"/>
  <stop offset="1" stop-color="#d7d8db"/>
</linearGradient>
<pattern id="界面模板_通用背包_物品栏外框_纹理" href="#界面模板_2_2物品槽_外框_纹理_基" patternTransform="translate(768, 1067)"/>
    <linearGradient id="_新建渐变色板_12" x1="108" y1="68" x2="108" y2="0" gradientUnits="userSpaceOnUse">
      <stop offset="0" stop-color="#7f8083"/>
      <stop offset="1" stop-color="#737477"/>
    </linearGradient>
    <linearGradient id="_未命名的渐变_765" x1="36" y1="140" x2="36" y2="72" gradientUnits="userSpaceOnUse">
      <stop offset="0" stop-color="#7f8083"/>
      <stop offset="1" stop-color="#737477"/>
    </linearGradient>
    <linearGradient id="_新建渐变色板_11" x1="36" y1="68" x2="36" y2="0" gradientUnits="userSpaceOnUse">
      <stop offset="0" stop-color="#8f9093"/>
      <stop offset="1" stop-color="#838487"/>
    </linearGradient>
    <linearGradient id="_未命名的渐变_812" x1="108" y1="140" x2="108" y2="72" gradientUnits="userSpaceOnUse">
      <stop offset="0" stop-color="#8f9093"/>
      <stop offset="1" stop-color="#838487"/>
    </linearGradient>
    <pattern id="界面模板_2_2物品槽_外框_纹理_基" patternUnits="userSpaceOnUse" width="144" height="144">
      <rect x="72" width="72" height="68" fill="url(#_新建渐变色板_12)"/>
      <rect y="72" width="72" height="68" fill="url(#_未命名的渐变_765)"/>
      <rect width="72" height="68" fill="url(#_新建渐变色板_11)"/>
      <rect x="72" y="72" width="72" height="68" fill="url(#_未命名的渐变_812)"/>
      <rect y="68" width="144" height="4" fill="#a1a2a5"/>
      <rect y="140" width="144" height="4" fill="#a1a2a5"/>
    </pattern>
  </defs>
<g transform="translate(-736.000, -803.000)">
  <g id="_物品栏外框" data-name="物品栏外框">
      <path d="M1392.06,1063h-600.11c-12.05,0-19.08.21-23.41,4.56-4.33,4.34-4.54,11.38-4.54,23.44v20c0,12.07.21,19.12,4.55,23.45,4.34,4.34,11.38,4.55,23.45,4.55h600c12.08,0,19.12-.21,23.45-4.55,4.34-4.34,4.55-11.38,4.55-23.45v-20c0-12.07-.21-19.11-4.53-23.44-4.33-4.35-11.36-4.56-23.41-4.56h0Z" style="fill: url(#_未命名的渐变_4003);"/>
      <path d="M1392.06,1067c22.95,0,23.94,1.02,23.94,24v20c0,23-1,24-24,24h-600c-23,0-24-1-24-24v-20c0-22.98,1-24,23.94-24,.02,0,.04,0,.06,0h600.06Z" style="fill: url(#界面模板_通用背包_物品栏外框_纹理);"/>
    </g>
</g>
</svg>
