<?xml version="1.0" encoding="UTF-8"?>
<svg xmlns="http://www.w3.org/2000/svg" xmlns:xlink="http://www.w3.org/1999/xlink"
     viewBox="0 0 692 660" width="692" height="660">
  <defs>
    <linearGradient id="_未命名的渐变_4009" data-name="未命名的渐变 4009" x1="1092" y1="755" x2="1092" y2="703" gradientUnits="userSpaceOnUse">
      <stop offset="0" stop-color="#eff0f3"/>
      <stop offset="1" stop-color="#d7d8db"/>
    </linearGradient>
    <linearGradient id="_未命名的渐变_4012" data-name="未命名的渐变 4012" x1="1092" y1="691" x2="1092" y2="471" gradientUnits="userSpaceOnUse">
      <stop offset="0" stop-color="#eff0f3"/>
      <stop offset="1" stop-color="#d7d8db"/>
    </linearGradient>
    <linearGradient id="_未命名的渐变_3924" data-name="未命名的渐变 3924" x1="69.71" y1="1312.07" x2="69.71" y2="1313.07" gradientTransform="translate(-12720.96 373082.38) scale(196 -284)" gradientUnits="userSpaceOnUse">
      <stop offset=".25" stop-color="#2e2f32"/>
      <stop offset=".75" stop-color="#2c2d30"/>
      <stop offset="1" stop-color="#28292c"/>
    </linearGradient>
    <linearGradient id="_未命名的渐变_3947" data-name="未命名的渐变 3947" x1="915" y1="431" x2="915" y2="167" gradientUnits="userSpaceOnUse">
      <stop offset="0" stop-color="#eff0f3"/>
      <stop offset="1" stop-color="#d7d8db"/>
    </linearGradient>
    <linearGradient id="_新建渐变色板_13" data-name="新建渐变色板 13" x1="1388" y1="323" x2="1388" y2="247" gradientUnits="userSpaceOnUse">
      <stop offset="0" stop-color="#eff0f3"/>
      <stop offset="1" stop-color="#eff0f3"/>
    </linearGradient>
    <linearGradient id="_新建渐变色板_13-2" data-name="新建渐变色板 13" x1="1200" y1="355" x2="1200" y2="207" href="#_新建渐变色板_13"/>
    <pattern id="副手槽_人物模型_装备槽_副手槽_纹理" href="#界面模板_2_2物品槽_外框_纹理_基" patternTransform="translate(1044, 387)"/>
    <pattern id="副手槽_人物模型_装备槽_装备槽_左_纹理" href="#界面模板_2_2物品槽_外框_纹理_基" patternTransform="translate(768, 171)"/>
    <pattern id="背包_物品栏外框_纹理" href="#界面模板_2_2物品槽_外框_纹理_基" patternTransform="translate(768, 779)"/>
    <pattern id="背包_背包外框_纹理" href="#界面模板_2_2物品槽_外框_纹理_基" patternTransform="translate(768, 475)"/>
    <pattern id="2_2合成台输出_外框_纹理" href="#界面模板_2_2物品槽_外框_纹理_基" patternTransform="translate(1352, 251)"/>
    <pattern id="2_2合成台输入_纹理" href="#界面模板_2_2物品槽_外框_纹理_基" patternTransform="translate(1128, 211)"/>
<clipPath id="clip_界面">
      <path d="M748,743v24c0,28.5,7.5,36,36,36h616c28.5,0,36-7.5,36-36v-24h-688Z"/>
    </clipPath>
<linearGradient id="edge_grad_left_界面" x1="0%" y1="0%" x2="100%" y2="0%">
      <stop offset="0%" stop-color="#636467"/>
      <stop offset="50%" stop-color="#636467"/>
      <stop offset="100%" stop-color="#636467" stop-opacity="0"/>
    </linearGradient>
<linearGradient id="edge_grad_right_界面" x1="0%" y1="0%" x2="100%" y2="0%">
      <stop offset="0%" stop-color="#636467" stop-opacity="0"/>
      <stop offset="50%" stop-color="#636467"/>
      <stop offset="100%" stop-color="#636467"/>
    </linearGradient>
<linearGradient id="_新建渐变色板_12" x1="108" y1="68" x2="108" y2="0" gradientUnits="userSpaceOnUse">
<stop offset="0" stop-color="#7f8083"/>
<stop offset="1" stop-color="#737477"/>
</linearGradient>
<linearGradient id="_未命名的渐变_765" x1="36" y1="140" x2="36" y2="72" gradientUnits="userSpaceOnUse">
<stop offset="0" stop-color="#7f8083"/>
<stop offset="1" stop-color="#737477"/>
</linearGradient>
<linearGradient id="_新建渐变色板_11" x1="36" y1="68" x2="36" y2="0" gradientUnits="userSpaceOnUse">
<stop offset="0" stop-color="#8f9093"/>
<stop offset="1" stop-color="#838487"/>
</linearGradient>
<linearGradient id="_未命名的渐变_812" x1="108" y1="140" x2="108" y2="72" gradientUnits="userSpaceOnUse">
<stop offset="0" stop-color="#8f9093"/>
<stop offset="1" stop-color="#838487"/>
</linearGradient>
<pattern id="界面模板_2_2物品槽_外框_纹理_基" patternUnits="userSpaceOnUse" width="144" height="144">
<rect x="72" width="72" height="68" fill="url(#_新建渐变色板_12)"/>
<rect y="72" width="72" height="68" fill="url(#_未命名的渐变_765)"/>
<rect width="72" height="68" fill="url(#_新建渐变色板_11)"/>
<rect x="72" y="72" width="72" height="68" fill="url(#_未命名的渐变_812)"/>
<rect y="68" width="144" height="4" fill="#a1a2a5"/>
<rect y="140" width="144" height="4" fill="#a1a2a5"/>
</pattern>
  </defs>
  <g transform="translate(-748.000, -147.000)">
      <g id="_界面_0-2" data-name="界面 0">
          <path d="M1398,147h-612c-34,0-42,8-42,42v576c0,34,8,42,42,42h612c34,0,42-8,42-42V189c0-34-8-42-42-42Z" style="fill-rule: evenodd;"/>
        </g>  <g id="_界面_1-2" data-name="界面 1">
          <g clip-path="url(#clip_界面)">
            <rect x="748.000" y="743.000" width="688.000" height="60.000" fill="#7f8083"/>
            <rect x="748.000" y="743.000" width="8.000" height="60.000" fill="url(#edge_grad_left_界面)"/>
            <rect x="1428.000" y="743.000" width="8.000" height="60.000" fill="url(#edge_grad_right_界面)"/>
          </g>
        </g>  <g id="_界面_2-2" data-name="界面 2">
          <path d="M1400,151h-616c-28.5,0-36,7.5-36,36v572c0,28.5,7.5,36,36,36h616c28.5,0,36-7.5,36-36V187c0-28.5-7.5-36-36-36Z" style="fill: #bbbcbf; fill-rule: evenodd;"/>
        </g>

      <path d="M1392.06,703h-600.11c-12.05,0-19.08.21-23.41,4.56-4.33,4.34-4.54,11.38-4.54,23.44v20c0,12.07.21,19.12,4.55,23.45,4.34,4.34,11.38,4.55,23.45,4.55h600c12.08,0,19.12-.21,23.45-4.55,4.34-4.34,4.55-11.38,4.55-23.45v-20c0-12.07-.21-19.11-4.53-23.44-4.33-4.35-11.36-4.56-23.41-4.56h0Z" style="fill: url(#_未命名的渐变_4009);"/>  <path d="M1392.06,707c22.95,0,23.94,1.02,23.94,24v20c0,23-1,24-24,24h-600c-23,0-24-1-24-24v-20c0-22.98,1-24,23.94-24h600.11Z" style="fill: url(#背包_物品栏外框_纹理);"/>  <path d="M1392.06,471h-600.11c-12.05,0-19.08.21-23.41,4.56-4.32,4.34-4.53,11.38-4.53,23.44v164c0,12.07.21,19.12,4.55,23.45,4.34,4.34,11.38,4.55,23.45,4.55h600c12.08,0,19.12-.21,23.45-4.55,4.34-4.34,4.55-11.38,4.55-23.45v-164c0-12.07-.21-19.1-4.54-23.44-4.33-4.35-11.36-4.56-23.41-4.56h0Z" style="fill: url(#_未命名的渐变_4012);"/>  <path d="M1392.06,475c22.94,0,23.94,1.02,23.94,24v164c0,23-1,24-24,24h-600c-23,0-24-1-24-24v-164c0-22.98,1-24,23.94-24h600.11Z" style="fill: url(#背包_背包外框_纹理);"/>

      <path d="M868,171h148c22.1,0,23.1.1,24,24v236c-.9,22.1-1.9,23.1-24,24h-148c-23.9-.9-24-1.9-24-24v-236c0-23.9.1-24,24-24Z" style="fill: url(#_未命名的渐变_3924); fill-rule: evenodd;"/>  <path d="M1011.58,397.38c-4.71-4.7-9.72-5.71-26.7-5.71h-85.9c-16.98,0-21.99,1.01-26.7,5.71l-28.28,28.21v5.41c0,22.1.1,23.1,24,24h148c22.1-.9,23.1-1.9,24-24v-5.27l-28.42-28.36Z" style="fill: #28292c; fill-rule: evenodd;"/>  <path d="M1092.05,383h-24.11c-12.05,0-19.08.21-23.41,4.56-4.32,4.34-4.53,11.38-4.53,23.44v20c0,12.07.21,19.12,4.55,23.45,4.34,4.34,11.38,4.55,23.45,4.55h24c12.08,0,19.12-.21,23.45-4.55,4.34-4.34,4.55-11.38,4.55-23.45v-20c0-12.07-.21-19.11-4.54-23.44-4.33-4.35-11.36-4.56-23.41-4.56h0Z" style="fill: url(#_未命名的渐变_3947);"/>  <path d="M1092.05,387c22.95,0,23.95,1.02,23.95,24v20c0,23-1,24-24,24h-24c-23,0-24-1-24-24v-20c0-22.98.99-24,23.95-24h24.11Z" style="fill: url(#副手槽_人物模型_装备槽_副手槽_纹理);"/>  <path d="M816.06,167h-24.12c-12.05,0-19.07.21-23.41,4.56-4.32,4.34-4.53,11.38-4.53,23.44v236c0,12.07.21,19.12,4.55,23.45,4.34,4.34,11.38,4.55,23.45,4.55h24c12.08,0,19.12-.21,23.45-4.55,4.34-4.34,4.55-11.38,4.55-23.45v-236c0-12.07-.21-19.1-4.54-23.44-4.33-4.35-11.36-4.56-23.41-4.56h0Z" style="fill: url(#_未命名的渐变_3947);"/>  <path d="M816.06,171c22.94,0,23.94,1.02,23.94,24v236c0,23-1,24-24,24h-24c-23,0-24-1-24-24v-236c0-22.98,1-24,23.94-24h24.12Z" style="fill: url(#副手槽_人物模型_装备槽_装备槽_左_纹理);"/>  <path fill-rule="evenodd" d="M1016.37,167h-148.78c-12.43,0-19.28,0-23.47,4.29-4.13,4.22-4.13,10.73-4.13,23.71v236c0,11.87,0,18.41,4.16,22.72,4.19,4.34,11,4.79,23.69,5.27h.08s.08,0,.08,0h148.16c11.58-.48,18.34-.95,22.62-5.22,4.27-4.27,4.75-11.03,5.22-22.61v-.08s0-.08,0-.08v-236.15c-.48-12.63-.93-19.41-5.19-23.61-4.3-4.24-11.13-4.24-22.44-4.24h0ZM1016.37,171c21.74,0,22.73.23,23.63,24v236c-.9,22.1-1.9,23.1-24,24h-148c-23.9-.9-24-1.9-24-24v-236c0-23.77.1-24,23.6-24h148.78Z" style="fill: url(#_未命名的渐变_3947);"/>

      <image id="_合成箭头_阴影_位图_图像-2" data-name="合成箭头 阴影（位图） 图像" width="47" height="32" transform="translate(1288 272)" href="005-无样式-35.png"/>  <image id="_合成箭头_位图_图像-2" data-name="合成箭头 （位图） 图像" width="47" height="32" transform="translate(1288 268)" href="005-无样式-36.png"/>  <path d="M1403.55,247h-32.02c-9.74,0-15.65.66-19.03,4.16-3.38,3.5-4.05,9.93-4.05,19.84v28c0,10.57,1.1,15.67,4.05,18.82,3.03,3.24,8.34,4.69,18.96,5.17h.09s.09,0,.09,0h32c9.89-.45,15.61-1.37,19.38-5.12,3.83-3.82,4.53-9.35,4.53-18.88v-28c0-11.28-1.22-16.66-4.5-19.84-3.6-3.48-9.87-4.16-19.5-4.16h0Z" style="fill: url(#_新建渐变色板_13);"/>  <path d="M1403.55,251c8.16,0,14.12.52,16.72,3.04,2.33,2.26,3.28,7.17,3.28,16.96v28c0,16.92-2.25,19.19-20.09,20h-31.82c-9.32-.43-14.02-1.56-16.22-3.91-2.14-2.28-2.97-6.8-2.97-16.09v-28c0-8.42.5-14.54,2.92-17.06,2.07-2.15,6.45-2.94,16.16-2.94h32.02Z" style="fill: url(#2_2合成台输出_外框_纹理);"/>  <path d="M1248.06,207h-96.12c-12.05,0-19.07.21-23.41,4.56-4.32,4.34-4.53,11.38-4.53,23.44v92c0,12.07.21,19.12,4.55,23.45s11.38,4.55,23.45,4.55h96c12.08,0,19.12-.21,23.45-4.55,4.34-4.34,4.55-11.38,4.55-23.45v-92c0-12.07-.21-19.11-4.53-23.44-4.33-4.35-11.36-4.56-23.41-4.56h0Z" style="fill: url(#_新建渐变色板_13-2);"/>  <path d="M1248.06,211c22.95,0,23.94,1.02,23.94,24v92c0,23-1,24-24,24h-96c-23,0-24-1-24-24v-92c0-22.98,1-24,23.94-24h96.12Z" style="fill: url(#2_2合成台输入_纹理);"/>

  </g>
</svg>