<?xml version="1.0" encoding="UTF-8"?>
<svg xmlns="http://www.w3.org/2000/svg" xmlns:xlink="http://www.w3.org/1999/xlink"
     viewBox="0 0 88.0 124.0" width="88.0" height="124.0">
  <defs>
    <linearGradient id="_未命名的渐变_2" data-name="未命名的渐变 2" x1="64.47" y1="1311.5" x2="64.47" y2="1310.5" gradientTransform="translate(-4283.86 94943.34) scale(72 -72)" gradientUnits="userSpaceOnUse">
      <stop offset="0" stop-color="#786fcf"/>
      <stop offset="1" stop-color="#7a7cdb"/>
    </linearGradient>
    <linearGradient id="_未命名的渐变_441" data-name="未命名的渐变 441" x1="358" y1="587" x2="358" y2="515" gradientUnits="userSpaceOnUse">
      <stop offset="0" stop-color="#a1a9e8"/>
      <stop offset="1" stop-color="#bac7ff"/>
    </linearGradient>
  </defs>
<g transform="translate(-314.000, -471.000)">
  <g >
      <rect x="322" y="515" width="72" height="72" rx="24" ry="24" style="fill: url(#_未命名的渐变_2);"/>
      <path d="M370,519c8.83,0,13.7,1.11,16.3,3.7s3.7,7.47,3.7,16.3v24c0,8.83-1.11,13.7-3.7,16.3s-7.47,3.7-16.3,3.7h-24c-8.83,0-13.7-1.11-16.3-3.7-2.6-2.6-3.7-7.47-3.7-16.3v-24c0-8.83,1.11-13.7,3.7-16.3,2.6-2.6,7.47-3.7,16.3-3.7h24M370,515h-24c-19,0-24,5-24,24v24c0,19,5,24,24,24h24c19,0,24-5,24-24v-24c0-19-5-24-24-24h0Z" style="fill: url(#_未命名的渐变_441);"/>
    </g>
</g>
</svg>
