<?xml version="1.0" encoding="UTF-8"?>
<svg xmlns="http://www.w3.org/2000/svg" xmlns:xlink="http://www.w3.org/1999/xlink"
     viewBox="0 0 88.0 88.0" width="88.0" height="88.0">
  <defs>

  </defs>
<g transform="translate(-314.000, -507.000)">
  <g >
      <rect x="324" y="517" width="68" height="68" rx="22" ry="22" style="fill: #172d13;"/>
      <path d="M370,519c8.83,0,13.7,1.11,16.3,3.7,2.6,2.6,3.7,7.47,3.7,16.3v24c0,8.83-1.11,13.7-3.7,16.3-2.6,2.6-7.47,3.7-16.3,3.7h-24c-8.83,0-13.7-1.11-16.3-3.7-2.6-2.6-3.7-7.47-3.7-16.3v-24c0-8.83,1.11-13.7,3.7-16.3,2.6-2.6,7.47-3.7,16.3-3.7h24M370,515h-24c-19,0-24,5-24,24v24c0,19,5,24,24,24h24c19,0,24-5,24-24v-24c0-19-5-24-24-24h0Z" style="fill: #47c729;"/>
    </g>
</g>
</svg>
