<?xml version="1.0" encoding="UTF-8"?>
<svg xmlns="http://www.w3.org/2000/svg" xmlns:xlink="http://www.w3.org/1999/xlink"
     viewBox="0 0 220 220" width="220" height="220">
  <defs>
    <linearGradient id="_未命名的渐变_288" data-name="未命名的渐变 288" x1="66.45" y1="1311.45" x2="66.45" y2="1312.45" gradientTransform="translate(-4827.86 105439.34) scale(80 -80)" gradientUnits="userSpaceOnUse">
      <stop offset="0" stop-color="#343130"/>
      <stop offset="1" stop-color="#2c2928"/>
    </linearGradient>
    <linearGradient id="_未命名的渐变_2" data-name="未命名的渐变 2" x1="64.47" y1="1311.5" x2="64.47" y2="1310.5" gradientTransform="translate(-4283.86 94943.34) scale(72 -72)" gradientUnits="userSpaceOnUse">
      <stop offset="0" stop-color="#786fcf"/>
      <stop offset="1" stop-color="#7a7cdb"/>
    </linearGradient>
    <linearGradient id="_未命名的渐变_288-2" data-name="未命名的渐变 288" x1="63.32" y1="1312.51" x2="63.32" y2="1313.51" gradientTransform="translate(-4283.86 63455.34) scale(72 -48)" href="#_未命名的渐变_288"/>
    <linearGradient id="_未命名的渐变_348" data-name="未命名的渐变 348" x1="275" y1="455" x2="275" y2="407" gradientUnits="userSpaceOnUse">
      <stop offset="0" stop-color="#646160"/>
      <stop offset="1" stop-color="#444140"/>
    </linearGradient>
    <linearGradient id="_未命名的渐变_288-3" data-name="未命名的渐变 288" x1="50.41" y1="1312.32" x2="50.41" y2="1313.32" gradientTransform="translate(-1019.86 84447.34) scale(24 -64)" href="#_未命名的渐变_288"/>
    <linearGradient id="_未命名的渐变_311" data-name="未命名的渐变 311" x1="190" y1="459" x2="190" y2="395" gradientUnits="userSpaceOnUse">
      <stop offset="0" stop-color="#646160"/>
      <stop offset="1" stop-color="#444140"/>
    </linearGradient>
    <linearGradient id="_未命名的渐变_41" data-name="未命名的渐变 41" x1="53.95" y1="1312.33" x2="53.95" y2="1313.33" gradientTransform="translate(-1019.86 84448.33) scale(24 -64)" gradientUnits="userSpaceOnUse">
      <stop offset="0" stop-color="#7b7877"/>
      <stop offset="1" stop-color="#83807f"/>
    </linearGradient>
    <linearGradient id="_未命名的渐变_304" data-name="未命名的渐变 304" x1="275" y1="459" x2="275" y2="395" gradientUnits="userSpaceOnUse">
      <stop offset="0" stop-color="#a3a09f"/>
      <stop offset="1" stop-color="#c3c0bf"/>
    </linearGradient>
    <linearGradient id="_未命名的渐变_2-2" data-name="未命名的渐变 2" x1="57.45" y1="1312.32" x2="57.45" y2="1313.32" gradientTransform="translate(-1019.86 84447.34) scale(24 -64)" href="#_未命名的渐变_2"/>
    <linearGradient id="_未命名的渐变_297" data-name="未命名的渐变 297" x1="359" y1="459" x2="359" y2="395" gradientUnits="userSpaceOnUse">
      <stop offset="0" stop-color="#a1a9e8"/>
      <stop offset="1" stop-color="#bac7ff"/>
    </linearGradient>
<clipPath id="clip_滑块禁用">
      <path d="M202,427v28c0,9.5-1.6,12-12,12h0c-8.6,0-12-2.5-12-12v-28h24Z"/>
    </clipPath>
<linearGradient id="edge_grad_left_滑块禁用" x1="0%" y1="0%" x2="100%" y2="0%">
      <stop offset="0%" stop-color="#2c2928"/>
      <stop offset="50%" stop-color="#2c2928"/>
      <stop offset="100%" stop-color="#2c2928" stop-opacity="0"/>
    </linearGradient>
<linearGradient id="edge_grad_right_滑块禁用" x1="0%" y1="0%" x2="100%" y2="0%">
      <stop offset="0%" stop-color="#2c2928" stop-opacity="0"/>
      <stop offset="50%" stop-color="#2c2928"/>
      <stop offset="100%" stop-color="#2c2928"/>
    </linearGradient>
<clipPath id="clip_滑块常态">
      <path d="M287,427v28c0,9.5-2.6,12-13,12h2c-8.6,0-13-2.5-13-12v-28h24Z"/>
    </clipPath>
<linearGradient id="edge_grad_left_滑块常态" x1="0%" y1="0%" x2="100%" y2="0%">
      <stop offset="0%" stop-color="#4c4948"/>
      <stop offset="50%" stop-color="#4c4948"/>
      <stop offset="100%" stop-color="#4c4948" stop-opacity="0"/>
    </linearGradient>
<linearGradient id="edge_grad_right_滑块常态" x1="0%" y1="0%" x2="100%" y2="0%">
      <stop offset="0%" stop-color="#4c4948" stop-opacity="0"/>
      <stop offset="50%" stop-color="#4c4948"/>
      <stop offset="100%" stop-color="#4c4948"/>
    </linearGradient>
<clipPath id="clip_滑块选中">
      <path d="M347,427v28c0,9.5,2.5,12,12,12s12-2.5,12-12v-28h-24Z"/>
    </clipPath>
<linearGradient id="edge_grad_left_滑块选中" x1="0%" y1="0%" x2="100%" y2="0%">
      <stop offset="0%" stop-color="#4b4384"/>
      <stop offset="50%" stop-color="#4b4384"/>
      <stop offset="100%" stop-color="#4b4384" stop-opacity="0"/>
    </linearGradient>
<linearGradient id="edge_grad_right_滑块选中" x1="0%" y1="0%" x2="100%" y2="0%">
      <stop offset="0%" stop-color="#4b4384" stop-opacity="0"/>
      <stop offset="50%" stop-color="#4b4384"/>
      <stop offset="100%" stop-color="#4b4384"/>
    </linearGradient>
  </defs>
  <g transform="translate(-174.000, -391.000)">
      <g id="_滑块导轨" data-name="滑块导轨">
          <g >
            <path d="M190,601c-7.38,0-10-1.51-10-10v-104c0-8.49,2.62-10,10-10,9.26,0,10,1.51,10,10v104c0,8.49-.74,10-10,10Z" style="fill: #2c2928; fill-rule: evenodd;"/>
            <path d="M190,479c3.9,0,6.25.39,6.98,1.17,1.02,1.08,1.02,5.26,1.02,6.83v104c0,1.57,0,5.74-1.02,6.83-.73.78-3.08,1.17-6.98,1.17-3.4,0-5.52-.44-6.48-1.35-1.01-.95-1.52-3.19-1.52-6.65v-104c0-3.46.51-5.7,1.52-6.65.96-.91,3.09-1.35,6.48-1.35M190,475c-8.6,0-12,2.5-12,12v104c0,9.5,3.4,12,12,12,10.4,0,12-2.5,12-12v-104c0-9.5-1.6-12-12-12h0Z" style="fill: #444140;"/>
          </g>
        </g>  <g id="_滑块-3" data-name="滑块">
          <g >
            <path d="M218,601c-7.38,0-10-1.51-10-10v-104c0-8.49,2.62-10,10-10,9.26,0,10,1.51,10,10v104c0,8.49-.74,10-10,10Z" style="fill: #83807f; fill-rule: evenodd;"/>
            <path d="M218,479c3.9,0,6.25.39,6.98,1.17,1.02,1.08,1.02,5.26,1.02,6.83v104c0,1.57,0,5.74-1.02,6.83-.73.78-3.08,1.17-6.98,1.17-3.4,0-5.52-.44-6.48-1.35-1.01-.95-1.52-3.19-1.52-6.65v-104c0-3.46.51-5.7,1.52-6.65.96-.91,3.09-1.35,6.48-1.35M218,475c-8.6,0-12,2.5-12,12v104c0,9.5,3.4,12,12,12,10.4,0,12-2.5,12-12v-104c0-9.5-1.6-12-12-12h0Z" style="fill: #c3c0bf;"/>
          </g>
        </g>

      <g id="_按钮禁用_0-5" data-name="按钮禁用 0">
          <rect x="235" y="403" width="80" height="56" rx="21" ry="21"/>
        </g>  <g id="_按钮禁用_2-2" data-name="按钮禁用 2">
          <g >
            <path d="M293,407h-35.1c-14.25,0-18.9,3.75-18.9,18v12c0,14.25,4.65,18,18.9,18h35.1c15.15,0,18-3.75,18-18v-12c0-14.25-2.85-18-18-18Z" style="fill: url(#_未命名的渐变_288-2); fill-rule: evenodd;"/>
            <path d="M293,411c6.55,0,10.19.75,11.79,2.42,1.55,1.61,2.21,5.08,2.21,11.58v12c0,6.5-.66,9.96-2.21,11.58-1.61,1.68-5.24,2.42-11.79,2.42h-35.1c-12.39,0-14.9-2.36-14.9-14v-12c0-11.64,2.51-14,14.9-14h35.1M293,407h-35.1c-14.25,0-18.9,3.75-18.9,18v12c0,14.25,4.65,18,18.9,18h35.1c15.15,0,18-3.75,18-18v-12c0-14.25-2.85-18-18-18h0Z" style="fill: url(#_未命名的渐变_348);"/>
          </g>
        </g>

      <g id="_按钮禁用_0-6" data-name="按钮禁用 0">
          <rect x="174" y="391" width="32" height="80" rx="14" ry="14"/>
        </g>  <g id="_按钮禁用_1" data-name="按钮禁用 1">
          <g clip-path="url(#clip_滑块禁用)">
            <rect x="178.000" y="427.000" width="24.000" height="40.000" fill="#343130"/>
            <rect x="178.000" y="427.000" width="8.000" height="40.000" fill="url(#edge_grad_left_滑块禁用)"/>
            <rect x="194.000" y="427.000" width="8.000" height="40.000" fill="url(#edge_grad_right_滑块禁用)"/>
          </g>
        </g>  <g id="_按钮禁用_2-3" data-name="按钮禁用 2">
          <g >
            <path d="M190,395h0c-8.6,0-12,2.5-12,12v40c0,9.5,3.4,12,12,12h0c10.4,0,12-2.5,12-12v-40c0-9.5-1.6-12-12-12Z" style="fill: url(#_未命名的渐变_288-3); fill-rule: evenodd;"/>
            <path d="M190,399c3.9,0,6.25.39,6.98,1.17,1.02,1.08,1.02,5.26,1.02,6.83v40c0,1.57,0,5.74-1.02,6.83-.73.78-3.08,1.17-6.98,1.17-3.4,0-5.52-.44-6.48-1.35-1.01-.95-1.52-3.19-1.52-6.65v-40c0-3.46.51-5.7,1.52-6.65.96-.91,3.09-1.35,6.48-1.35M190,395c-8.6,0-12,2.5-12,12v40c0,9.5,3.4,12,12,12,10.4,0,12-2.5,12-12v-40c0-9.5-1.6-12-12-12h0Z" style="fill: url(#_未命名的渐变_311);"/>
          </g>
        </g>

      <g id="_按钮常态_0" data-name="按钮常态 0">
          <rect x="259" y="390.99" width="32" height="80" rx="14" ry="14"/>
        </g>  <g id="_按钮常态_1" data-name="按钮常态 1">
          <g clip-path="url(#clip_滑块常态)">
            <rect x="263.000" y="427.000" width="24.000" height="40.000" fill="#5c5958"/>
            <rect x="263.000" y="427.000" width="8.000" height="40.000" fill="url(#edge_grad_left_滑块常态)"/>
            <rect x="279.000" y="427.000" width="8.000" height="40.000" fill="url(#edge_grad_right_滑块常态)"/>
          </g>
        </g>  <g id="_按钮常态_2" data-name="按钮常态 2">
          <g >
            <path d="M275,395h0c-8.6,0-12,2.5-12,12v40c0,9.5,3.4,12,12,12h0c10.4,0,12-2.5,12-12v-40c0-9.5-1.6-12-12-12Z" style="fill: url(#_未命名的渐变_41); fill-rule: evenodd;"/>
            <path d="M275,399c3.9,0,6.25.39,6.98,1.17,1.02,1.08,1.02,5.26,1.02,6.83v40c0,1.57,0,5.74-1.02,6.83-.73.78-3.08,1.17-6.98,1.17-3.4,0-5.52-.44-6.48-1.35-1.01-.95-1.52-3.19-1.52-6.65v-40c0-3.46.51-5.7,1.52-6.65.96-.91,3.09-1.35,6.48-1.35M275,395c-8.6,0-12,2.5-12,12v40c0,9.5,3.4,12,12,12,10.4,0,12-2.5,12-12v-40c0-9.5-1.6-12-12-12h0Z" style="fill: url(#_未命名的渐变_304);"/>
          </g>
        </g>

      <g id="_按钮选中_0" data-name="按钮选中 0">
          <rect x="343" y="391" width="32" height="80" rx="14" ry="14" style="fill: #fff;"/>
        </g>  <g id="_按钮选中_1" data-name="按钮选中 1">
          <g clip-path="url(#clip_滑块选中)">
            <rect x="347.000" y="427.000" width="24.000" height="40.000" fill="#5d53a4"/>
            <rect x="347.000" y="427.000" width="8.000" height="40.000" fill="url(#edge_grad_left_滑块选中)"/>
            <rect x="363.000" y="427.000" width="8.000" height="40.000" fill="url(#edge_grad_right_滑块选中)"/>
          </g>
        </g>  <g id="_按钮选中_2" data-name="按钮选中 2">
          <g >
            <path d="M359,395h0c-8.6,0-12,2.5-12,12v40c0,9.5,3.4,12,12,12h0c10.4,0,12-2.5,12-12v-40c0-9.5-1.6-12-12-12Z" style="fill: url(#_未命名的渐变_2-2); fill-rule: evenodd;"/>
            <path d="M359,399c3.9,0,6.25.39,6.98,1.17,1.02,1.08,1.02,5.26,1.02,6.83v40c0,1.57,0,5.74-1.02,6.83-.73.78-3.08,1.17-6.98,1.17-3.4,0-5.52-.44-6.48-1.35-1.01-.95-1.52-3.19-1.52-6.65v-40c0-3.46.51-5.7,1.52-6.65.96-.91,3.09-1.35,6.48-1.35M359,395c-8.6,0-12,2.5-12,12v40c0,9.5,3.4,12,12,12,10.4,0,12-2.5,12-12v-40c0-9.5-1.6-12-12-12h0Z" style="fill: url(#_未命名的渐变_297);"/>
          </g>
        </g>

  </g>
</svg>