<?xml version="1.0" encoding="UTF-8"?>
<svg xmlns="http://www.w3.org/2000/svg" xmlns:xlink="http://www.w3.org/1999/xlink"
     viewBox="0 0 68.0 144.0" width="68.0" height="144.0">
  <defs>

  </defs>
<g transform="translate(-170.000, -467.000)">
  <g id="_滑块导轨" data-name="滑块导轨">
      <g >
        <path d="M190,601c-7.38,0-10-1.51-10-10v-104c0-8.49,2.62-10,10-10,9.26,0,10,1.51,10,10v104c0,8.49-.74,10-10,10Z" style="fill: #2c2928; fill-rule: evenodd;"/>
        <path d="M190,479c3.9,0,6.25.39,6.98,1.17,1.02,1.08,1.02,5.26,1.02,6.83v104c0,1.57,0,5.74-1.02,6.83-.73.78-3.08,1.17-6.98,1.17-3.4,0-5.52-.44-6.48-1.35-1.01-.95-1.52-3.19-1.52-6.65v-104c0-3.46.51-5.7,1.52-6.65.96-.91,3.09-1.35,6.48-1.35M190,475c-8.6,0-12,2.5-12,12v104c0,9.5,3.4,12,12,12,10.4,0,12-2.5,12-12v-104c0-9.5-1.6-12-12-12h0Z" style="fill: #444140;"/>
      </g>
    </g>  <g id="_滑块-3" data-name="滑块">
      <g >
        <path d="M218,601c-7.38,0-10-1.51-10-10v-104c0-8.49,2.62-10,10-10,9.26,0,10,1.51,10,10v104c0,8.49-.74,10-10,10Z" style="fill: #83807f; fill-rule: evenodd;"/>
        <path d="M218,479c3.9,0,6.25.39,6.98,1.17,1.02,1.08,1.02,5.26,1.02,6.83v104c0,1.57,0,5.74-1.02,6.83-.73.78-3.08,1.17-6.98,1.17-3.4,0-5.52-.44-6.48-1.35-1.01-.95-1.52-3.19-1.52-6.65v-104c0-3.46.51-5.7,1.52-6.65.96-.91,3.09-1.35,6.48-1.35M218,475c-8.6,0-12,2.5-12,12v104c0,9.5,3.4,12,12,12,10.4,0,12-2.5,12-12v-104c0-9.5-1.6-12-12-12h0Z" style="fill: #c3c0bf;"/>
      </g>
    </g>
</g>
</svg>
