<?xml version="1.0" encoding="UTF-8"?>
<svg xmlns="http://www.w3.org/2000/svg" xmlns:xlink="http://www.w3.org/1999/xlink"
     viewBox="0 0 88.0 88.0" width="88.0" height="88.0">
  <defs>
    <linearGradient id="_未命名的渐变_2" data-name="未命名的渐变 2" x1="64.47" y1="1311.5" x2="64.47" y2="1310.5" gradientTransform="translate(-4283.86 94943.34) scale(72 -72)" gradientUnits="userSpaceOnUse">
      <stop offset="0" stop-color="#786fcf"/>
      <stop offset="1" stop-color="#7a7cdb"/>
    </linearGradient>
    <linearGradient id="_未命名的渐变_2-5" data-name="未命名的渐变 2" x1="84.34" y1="1310.88" x2="84.34" y2="1311.88" gradientTransform="translate(-3739.86 73951.34) scale(64 -56)" href="#_未命名的渐变_2"/>
    <linearGradient id="_新建渐变色板_5" data-name="新建渐变色板 5" x1="1658" y1="542" x2="1658" y2="486" gradientUnits="userSpaceOnUse">
      <stop offset="0" stop-color="#a1a9e8"/>
      <stop offset="1" stop-color="#bac7ff"/>
    </linearGradient>
    <clipPath id="clip_按钮选中">
      <path d="M1626,510v16c0,19,5,24,24,24h16c19,0,24-5,24-24v-16h-64Z"/>
    </clipPath>
    <linearGradient id="edge_grad_left_按钮选中" x1="0%" y1="0%" x2="100%" y2="0%">
      <stop offset="0%" stop-color="#4b4384"/>
      <stop offset="50%" stop-color="#4b4384"/>
      <stop offset="100%" stop-color="#4b4384" stop-opacity="0"/>
    </linearGradient>
    <linearGradient id="edge_grad_right_按钮选中" x1="0%" y1="0%" x2="100%" y2="0%">
      <stop offset="0%" stop-color="#4b4384" stop-opacity="0"/>
      <stop offset="50%" stop-color="#4b4384"/>
      <stop offset="100%" stop-color="#4b4384"/>
    </linearGradient>
  </defs>
<g transform="translate(-1614.000, -474.000)">
  <g id="_按钮选中_0-5" data-name="按钮选中 0">
      <path d="M1666,482h-16c-22,0-28,6-28,28v16c0,22,6,28,28,28h16c22,0,28-6,28-28v-16c0-22-6-28-28-28Z" style="fill: #fff; fill-rule: evenodd;"/>
    </g>  <g id="_按钮选中_1-5" data-name="按钮选中 1">
      <g clip-path="url(#clip_按钮选中)">
        <rect x="1626.000" y="510.000" width="64.000" height="40.000" fill="#5d53a4"/>
        <rect x="1626.000" y="510.000" width="8.000" height="40.000" fill="url(#edge_grad_left_按钮选中)"/>
        <rect x="1682.000" y="510.000" width="8.000" height="40.000" fill="url(#edge_grad_right_按钮选中)"/>
      </g>
    </g>  <g id="_按钮选中_2-5" data-name="按钮选中 2">
      <g >
        <rect x="1626" y="486" width="64" height="56" rx="24" ry="24" style="fill: url(#_未命名的渐变_2-5);"/>
        <path d="M1666,490c8.83,0,13.7,1.11,16.3,3.7,2.6,2.6,3.7,7.47,3.7,16.3v8c0,8.83-1.11,13.7-3.7,16.3-2.6,2.6-7.47,3.7-16.3,3.7h-16c-8.83,0-13.7-1.11-16.3-3.7-2.6-2.6-3.7-7.47-3.7-16.3v-8c0-8.83,1.11-13.7,3.7-16.3,2.6-2.6,7.47-3.7,16.3-3.7h16M1666,486h-16c-19,0-24,5-24,24v8c0,19,5,24,24,24h16c19,0,24-5,24-24v-8c0-19-5-24-24-24h0Z" style="fill: url(#_新建渐变色板_5);"/>
      </g>
    </g>
</g>
</svg>
